<?xml version="1.0" encoding="utf-8"?>
<svg width="48" height="48" viewBox="0 0 48 48" fill="none" xmlns="http://www.w3.org/2000/svg">
  <g>
    <path d="M38.9999 2.68043C39.5461 2.99575 39.9115 3.5502 39.9859 4.17643C39.9859 4.17643 39.9999 4.41243 39.9999 4.41243C39.9999 4.41243 39.9999 30.4124 39.9999 30.4124C39.9999 31.1269 39.6188 31.7871 39 32.1444C38.3812 32.5017 37.6188 32.5017 37 32.1445C32.3985 29.4874 26.7781 29.2881 22 31.6125C22 31.6125 22 1.26445 22 1.26445C27.5939 -0.825073 33.8289 -0.305738 39 2.68045C39 2.68045 38.9999 2.68043 38.9999 2.68043ZM18 1.26645C18 1.26645 18.002 31.6145 18.002 31.6145C13.4175 29.3827 8.04389 29.4696 3.534 31.8485C3.534 31.8485 2.88 32.2085 2.88 32.2085L2.674 32.2965L2.576 32.3285L2.356 32.3805L2.234 32.4005L2 32.4125L1.916 32.4125L1.696 32.3885L1.542 32.3605L1.326 32.2965L1.074 32.1845L0.884 32.0725L0.706 31.9385L0.586 31.8265L0.44 31.6625L0.312 31.4845L0.268 31.4125L0.204 31.2925L0.116 31.0865L0.0840001 30.9885L0.0320001 30.7685L0.0120001 30.6465L0.00400019 30.5485C0.00400019 30.5485 0 4.41246 0 4.41246C0 3.698 0.381179 3.03776 0.999956 2.68048C6.17139 -0.305042 12.4063 -0.823642 18 1.26649C18 1.26649 18 1.26645 18 1.26645Z" fill="#FFFFFF" transform="translate(4 7.588)" />
  </g>
</svg>