<?xml version="1.0" encoding="utf-8"?>
<svg width="48" height="48" viewBox="0 0 48 48" fill="none" xmlns="http://www.w3.org/2000/svg">
  <g>
    <path d="M26.0003 0C26.3663 0 26.7103 0.0999999 27.0043 0.27C27.0043 0.27 27.0703 0.31 27.0703 0.31C27.6303 0.664 28.0003 1.29 28.0003 2C28.0003 2 28.0003 4 28.0003 4C28.0003 4 30.0003 4 30.0003 4C33.1774 3.99982 35.8039 6.47636 35.9903 9.648C35.9903 9.648 36.0003 10 36.0003 10C36.0003 10 36.0003 34 36.0003 34C36.0003 37.1774 33.5237 39.8038 30.352 39.99C30.352 39.99 30 40 30 40C30 40 6 40 6 40C2.82289 40.0002 0.196392 37.5237 0.0100002 34.352C0.0100002 34.352 0 34 0 34C0 34 0 10 0 10C0 6.82257 2.47668 4.19621 5.64833 4.01C5.64833 4.01 6.00033 4 6.00033 4L8.00033 4C8.00033 4 8.00033 2 8.00033 2C8.00008 1.27453 8.39335 0.605355 9.0278 0.252292C9.0278 0.252292 9.2138 0.160292 9.2138 0.160292L9.3458 0.110291L9.5458 0.0522914L9.7598 0.0142913C9.7598 0.0142913 9.9998 0.000291348 9.9998 0.000291348C10.1105 0.000291348 10.2178 0.00895786 10.3218 0.0262914C10.3218 0.0262914 10.5658 0.0842915 10.5658 0.0842915L10.6458 0.108292C10.6458 0.108292 10.7658 0.154292 10.7658 0.154292C11.4218 0.424292 11.9018 1.03429 11.9858 1.76629C11.9858 1.76629 11.9998 2.00029 11.9998 2.00029L11.9998 4.00029L23.9998 4.00029C23.9998 4.00029 23.9998 2.00029 23.9998 2.00029C23.9998 0.895722 24.8952 0.000291824 25.9998 0.000291824C25.9998 0.000291824 26.0003 0 26.0003 0ZM31.9998 14.0003L3.9998 14.0003C3.9998 14.0003 3.9998 33.2503 3.9998 33.2503C3.9998 34.6603 4.7718 35.8223 5.7658 35.9823C5.7658 35.9823 5.9998 36.0003 5.9998 36.0003C5.9998 36.0003 29.9998 36.0003 29.9998 36.0003C31.0258 36.0003 31.8718 34.9403 31.9858 33.5703C31.9858 33.5703 31.9998 33.2503 31.9998 33.2503L31.9998 14.0003Z" fill="#FFFFFF" transform="translate(6 4)" />
    <path d="M4.09633 2.00178C4.09633 3.10635 3.2009 4.00178 2.09633 4.00178C1.36057 4.03649 0.665189 3.66438 0.285873 3.03298C-0.093441 2.40159 -0.0954132 1.61291 0.280739 0.979624C0.656891 0.346342 1.35041 -0.0292416 2.08632 0.00178337C3.20032 0.00178337 4.09632 0.897783 4.09632 2.00178C4.09632 2.00178 4.09633 2.00178 4.09633 2.00178Z" fill="#FFFFFF" fill-rule="evenodd" transform="translate(13.934 23.998)" />
    <path d="M4.09633 2.00178C4.09633 3.10635 3.2009 4.00178 2.09633 4.00178C1.36057 4.03649 0.66519 3.66438 0.285875 3.03298C-0.093441 2.40159 -0.0954132 1.61291 0.280739 0.979624C0.656893 0.346342 1.35041 -0.0292416 2.08632 0.00178337C3.20033 0.00178337 4.09632 0.897783 4.09632 2.00178C4.09632 2.00178 4.09633 2.00178 4.09633 2.00178Z" fill="#FFFFFF" fill-rule="evenodd" transform="translate(21.934 23.998)" />
    <path d="M4.09632 2.00178C4.09632 3.10635 3.20089 4.00178 2.09632 4.00178C1.36057 4.03649 0.665188 3.66438 0.285873 3.03298C-0.093441 2.40159 -0.0954132 1.61291 0.280741 0.979624C0.656893 0.346342 1.35041 -0.0292416 2.08633 0.00178337C3.20033 0.00178337 4.09632 0.897783 4.09632 2.00178C4.09632 2.00178 4.09632 2.00178 4.09632 2.00178Z" fill="#FFFFFF" fill-rule="evenodd" transform="translate(29.944 23.998)" />
    <path d="M2.09633 0.00178146C3.2009 0.00178146 4.09633 0.897211 4.09633 2.00178C4.09633 3.10635 3.2009 4.00178 2.09633 4.00178C1.36057 4.03649 0.66519 3.66438 0.285875 3.03299C-0.093441 2.40159 -0.0954132 1.61291 0.280739 0.979624C0.656893 0.346342 1.35041 -0.0292416 2.08632 0.00178337C2.08632 0.00178337 2.09633 0.00178146 2.09633 0.00178146Z" fill="#FFFFFF" fill-rule="evenodd" transform="translate(21.944 29.998)" />
    <path d="M4.09633 2.00178C4.09633 3.10635 3.2009 4.00178 2.09633 4.00178C1.36057 4.03649 0.665189 3.66438 0.285873 3.03299C-0.093441 2.40159 -0.0954132 1.61291 0.280739 0.979624C0.656891 0.346342 1.35041 -0.0292416 2.08632 0.00178337C3.20032 0.00178337 4.09632 0.897783 4.09632 2.00178C4.09632 2.00178 4.09633 2.00178 4.09633 2.00178Z" fill="#FFFFFF" fill-rule="evenodd" transform="translate(13.934 29.998)" />
  </g>
</svg>