<?xml version="1.0" encoding="utf-8"?>
<svg width="50" height="50" viewBox="0 0 50 50" fill="none" xmlns="http://www.w3.org/2000/svg">
  <g>
    <path d="M19.1775 41.0737C18.3148 41.0734 17.4531 41.0136 16.5986 40.8947C14.9772 40.6698 13.3903 40.2428 11.8749 39.6237C8.71832 38.3265 5.96683 36.2074 3.90647 33.4868C2.86083 32.1207 2.00647 30.6182 1.367 29.0211C-1.13218 22.7529 -0.161322 15.6333 3.9249 10.2632C4.97025 8.888 6.19823 7.66179 7.57489 6.61843C8.76684 5.7773 10.4107 6.03044 11.2944 7.19119C12.1781 8.35194 11.9845 10.0039 10.8565 10.929C9.87145 11.674 8.99234 12.5496 8.24331 13.5316C7.51773 14.4867 6.91806 15.5313 6.4591 16.6395C6.00953 17.7289 5.70175 18.8716 5.54331 20.0395C5.2185 22.4017 5.51416 24.8078 6.40121 27.0211C6.85872 28.1618 7.46961 29.2348 8.21699 30.2105C8.96464 31.1982 9.84282 32.08 10.8275 32.8316C11.7794 33.557 12.8215 34.1559 13.9275 34.6132C15.0222 35.0618 16.1689 35.3713 17.3407 35.5342C18.5031 35.6952 19.6817 35.7023 20.8459 35.5553C22.0373 35.4022 23.2045 35.0989 24.3196 34.6526C26.6189 33.722 28.6276 32.1938 30.1381 30.2263C31.5838 28.3355 32.5092 26.099 32.8223 23.7395C32.9822 22.5735 32.991 21.3919 32.8486 20.2237C32.6977 19.0336 32.3943 17.8679 31.9459 16.7552C31.4848 15.6054 30.8695 14.5236 30.117 13.5395C29.3739 12.5576 28.5 11.6819 27.5196 10.9368C26.7035 10.3698 26.2631 9.40157 26.372 8.41376C26.4809 7.42595 27.1217 6.57696 28.0417 6.20135C28.9618 5.82574 30.0137 5.98376 30.7828 6.61313C32.1576 7.65699 33.383 8.88417 34.4249 10.2605C35.4751 11.6345 36.3338 13.1448 36.9775 14.75C37.5956 16.293 38.0139 17.9088 38.2222 19.5579C39.2712 28.1887 34.3895 36.4473 26.3223 39.6894C24.7801 40.3036 23.1664 40.72 21.5196 40.9289C20.7427 41.0264 19.9605 41.0756 19.1775 41.0763C19.1775 41.0763 19.1775 41.0737 19.1775 41.0737ZM19.1828 21.3711C17.6868 21.371 16.4737 20.1591 16.4723 18.6632C16.4723 18.6632 16.4723 2.71053 16.4723 2.71053C16.4723 1.21354 17.6858 0 19.1828 0C20.6798 0 21.8933 1.21354 21.8933 2.71053C21.8933 2.71053 21.8933 18.6632 21.8933 18.6632C21.8933 20.1601 20.6798 21.3737 19.1828 21.3737C19.1828 21.3737 19.1828 21.3711 19.1828 21.3711Z" fill="#FFFFFF" transform="translate(5.817 3.926)" />
  </g>
</svg>